<svg width="421" height="250" viewBox="0 0 421 250" fill="none" xmlns="http://www.w3.org/2000/svg">
<mask id="mask0" mask-type="alpha" maskUnits="userSpaceOnUse" x="0" y="155" width="421" height="39">
<rect x="0.5" y="-0.5" width="420" height="38" transform="matrix(1 0 0 -1 0 193)" fill="#F1FAFF"/>
<rect x="0.5" y="-0.5" width="420" height="38" transform="matrix(1 0 0 -1 0 193)" stroke="white"/>
<rect x="0.5" y="-0.5" width="420" height="38" transform="matrix(1 0 0 -1 0 193)" stroke="url(#paint0_linear)"/>
<rect x="0.5" y="-0.5" width="420" height="38" transform="matrix(1 0 0 -1 0 193)" stroke="url(#paint1_linear)"/>
</mask>
<g mask="url(#mask0)">
<path d="M248.614 -63.4872L262.262 -31.1057C267.958 -17.5918 279.247 -7.2213 293.194 -2.69011L310.469 2.92201C356.077 17.7386 356.077 82.2613 310.469 97.078L293.194 102.69C279.247 107.221 267.958 117.592 262.262 131.106L248.614 163.487C231.601 203.854 174.399 203.854 157.386 163.487L143.738 131.106C138.042 117.592 126.753 107.221 112.806 102.69L95.5307 97.078C49.9231 82.2614 49.9231 17.7386 95.5307 2.92203L112.806 -2.69011C126.753 -7.22128 138.042 -17.5918 143.738 -31.1057L157.386 -63.4872C174.399 -103.854 231.601 -103.854 248.614 -63.4872Z" fill="#E1F1F9"/>
<path d="M248.614 -63.4872L262.262 -31.1057C267.958 -17.5918 279.247 -7.2213 293.194 -2.69011L310.469 2.92201C356.077 17.7386 356.077 82.2613 310.469 97.078L293.194 102.69C279.247 107.221 267.958 117.592 262.262 131.106L248.614 163.487C231.601 203.854 174.399 203.854 157.386 163.487L143.738 131.106C138.042 117.592 126.753 107.221 112.806 102.69L95.5307 97.078C49.9231 82.2614 49.9231 17.7386 95.5307 2.92203L112.806 -2.69011C126.753 -7.22128 138.042 -17.5918 143.738 -31.1057L157.386 -63.4872C174.399 -103.854 231.601 -103.854 248.614 -63.4872Z" stroke="white"/>
<path d="M248.614 -63.4872L262.262 -31.1057C267.958 -17.5918 279.247 -7.2213 293.194 -2.69011L310.469 2.92201C356.077 17.7386 356.077 82.2613 310.469 97.078L293.194 102.69C279.247 107.221 267.958 117.592 262.262 131.106L248.614 163.487C231.601 203.854 174.399 203.854 157.386 163.487L143.738 131.106C138.042 117.592 126.753 107.221 112.806 102.69L95.5307 97.078C49.9231 82.2614 49.9231 17.7386 95.5307 2.92203L112.806 -2.69011C126.753 -7.22128 138.042 -17.5918 143.738 -31.1057L157.386 -63.4872C174.399 -103.854 231.601 -103.854 248.614 -63.4872Z" stroke="url(#paint2_linear)"/>
<path d="M248.614 -63.4872L262.262 -31.1057C267.958 -17.5918 279.247 -7.2213 293.194 -2.69011L310.469 2.92201C356.077 17.7386 356.077 82.2613 310.469 97.078L293.194 102.69C279.247 107.221 267.958 117.592 262.262 131.106L248.614 163.487C231.601 203.854 174.399 203.854 157.386 163.487L143.738 131.106C138.042 117.592 126.753 107.221 112.806 102.69L95.5307 97.078C49.9231 82.2614 49.9231 17.7386 95.5307 2.92203L112.806 -2.69011C126.753 -7.22128 138.042 -17.5918 143.738 -31.1057L157.386 -63.4872C174.399 -103.854 231.601 -103.854 248.614 -63.4872Z" stroke="url(#paint3_linear)"/>
</g>
<path d="M232.34 76.4584L233.034 78.2365C236.358 86.7415 243.228 93.3722 251.845 96.3918C278.898 105.871 278.898 144.129 251.845 153.609C243.228 156.628 236.358 163.259 233.034 171.764L232.34 173.542C221.901 200.256 184.099 200.256 173.66 173.542L172.966 171.764C169.642 163.259 162.772 156.628 154.155 153.609C127.102 144.129 127.102 105.871 154.155 96.3918C162.772 93.3722 169.642 86.7415 172.966 78.2365L173.66 76.4585C184.099 49.7446 221.901 49.7446 232.34 76.4584Z" fill="#EEF9FF"/>
<path d="M232.34 76.4584L233.034 78.2365C236.358 86.7415 243.228 93.3722 251.845 96.3918C278.898 105.871 278.898 144.129 251.845 153.609C243.228 156.628 236.358 163.259 233.034 171.764L232.34 173.542C221.901 200.256 184.099 200.256 173.66 173.542L172.966 171.764C169.642 163.259 162.772 156.628 154.155 153.609C127.102 144.129 127.102 105.871 154.155 96.3918C162.772 93.3722 169.642 86.7415 172.966 78.2365L173.66 76.4585C184.099 49.7446 221.901 49.7446 232.34 76.4584Z" stroke="white"/>
<path d="M232.34 76.4584L233.034 78.2365C236.358 86.7415 243.228 93.3722 251.845 96.3918C278.898 105.871 278.898 144.129 251.845 153.609C243.228 156.628 236.358 163.259 233.034 171.764L232.34 173.542C221.901 200.256 184.099 200.256 173.66 173.542L172.966 171.764C169.642 163.259 162.772 156.628 154.155 153.609C127.102 144.129 127.102 105.871 154.155 96.3918C162.772 93.3722 169.642 86.7415 172.966 78.2365L173.66 76.4585C184.099 49.7446 221.901 49.7446 232.34 76.4584Z" stroke="url(#paint4_linear)"/>
<path d="M232.34 76.4584L233.034 78.2365C236.358 86.7415 243.228 93.3722 251.845 96.3918C278.898 105.871 278.898 144.129 251.845 153.609C243.228 156.628 236.358 163.259 233.034 171.764L232.34 173.542C221.901 200.256 184.099 200.256 173.66 173.542L172.966 171.764C169.642 163.259 162.772 156.628 154.155 153.609C127.102 144.129 127.102 105.871 154.155 96.3918C162.772 93.3722 169.642 86.7415 172.966 78.2365L173.66 76.4585C184.099 49.7446 221.901 49.7446 232.34 76.4584Z" stroke="url(#paint5_linear)"/>
<g filter="url(#filter0_d)">
<ellipse cx="203" cy="162" rx="23" ry="24" fill="#CAE3F1"/>
<path d="M225.5 162C225.5 174.999 215.407 185.5 203 185.5C190.593 185.5 180.5 174.999 180.5 162C180.5 149.001 190.593 138.5 203 138.5C215.407 138.5 225.5 149.001 225.5 162Z" stroke="white"/>
<path d="M225.5 162C225.5 174.999 215.407 185.5 203 185.5C190.593 185.5 180.5 174.999 180.5 162C180.5 149.001 190.593 138.5 203 138.5C215.407 138.5 225.5 149.001 225.5 162Z" stroke="url(#paint6_linear)"/>
<path d="M225.5 162C225.5 174.999 215.407 185.5 203 185.5C190.593 185.5 180.5 174.999 180.5 162C180.5 149.001 190.593 138.5 203 138.5C215.407 138.5 225.5 149.001 225.5 162Z" stroke="url(#paint7_linear)"/>
</g>
<circle cx="203" cy="158" r="23.5" fill="url(#paint8_linear)"/>
<circle cx="203" cy="158" r="23.5" stroke="white"/>
<circle cx="203" cy="158" r="23.5" stroke="url(#paint9_linear)"/>
<circle cx="203" cy="158" r="23.5" stroke="url(#paint10_linear)"/>
<path d="M203.702 163.56L203.702 163.56C203.478 163.887 203.223 164.006 203.001 164.006L203.001 164.006C202.78 164.006 202.524 163.886 202.299 163.557C202.299 163.557 202.299 163.557 202.299 163.557C202.299 163.557 202.299 163.557 202.299 163.557L197.736 156.889L197.736 156.888C197.558 156.63 197.5 156.422 197.5 156.299C197.5 156.2 197.532 156.149 197.585 156.108C197.655 156.056 197.803 155.994 198.068 155.994L207.93 155.994C208.196 155.994 208.345 156.056 208.414 156.109C208.467 156.149 208.5 156.201 208.5 156.301C208.5 156.425 208.44 156.638 208.265 156.894L208.265 156.894L203.702 163.56Z" fill="#4DA19C"/>
<path d="M203.702 163.56L203.702 163.56C203.478 163.887 203.223 164.006 203.001 164.006L203.001 164.006C202.78 164.006 202.524 163.886 202.299 163.557C202.299 163.557 202.299 163.557 202.299 163.557C202.299 163.557 202.299 163.557 202.299 163.557L197.736 156.889L197.736 156.888C197.558 156.63 197.5 156.422 197.5 156.299C197.5 156.2 197.532 156.149 197.585 156.108C197.655 156.056 197.803 155.994 198.068 155.994L207.93 155.994C208.196 155.994 208.345 156.056 208.414 156.109C208.467 156.149 208.5 156.201 208.5 156.301C208.5 156.425 208.44 156.638 208.265 156.894L208.265 156.894L203.702 163.56Z" stroke="white"/>
<path d="M203.702 163.56L203.702 163.56C203.478 163.887 203.223 164.006 203.001 164.006L203.001 164.006C202.78 164.006 202.524 163.886 202.299 163.557C202.299 163.557 202.299 163.557 202.299 163.557C202.299 163.557 202.299 163.557 202.299 163.557L197.736 156.889L197.736 156.888C197.558 156.63 197.5 156.422 197.5 156.299C197.5 156.2 197.532 156.149 197.585 156.108C197.655 156.056 197.803 155.994 198.068 155.994L207.93 155.994C208.196 155.994 208.345 156.056 208.414 156.109C208.467 156.149 208.5 156.201 208.5 156.301C208.5 156.425 208.44 156.638 208.265 156.894L208.265 156.894L203.702 163.56Z" stroke="url(#paint11_linear)"/>
<path d="M203.702 163.56L203.702 163.56C203.478 163.887 203.223 164.006 203.001 164.006L203.001 164.006C202.78 164.006 202.524 163.886 202.299 163.557C202.299 163.557 202.299 163.557 202.299 163.557C202.299 163.557 202.299 163.557 202.299 163.557L197.736 156.889L197.736 156.888C197.558 156.63 197.5 156.422 197.5 156.299C197.5 156.2 197.532 156.149 197.585 156.108C197.655 156.056 197.803 155.994 198.068 155.994L207.93 155.994C208.196 155.994 208.345 156.056 208.414 156.109C208.467 156.149 208.5 156.201 208.5 156.301C208.5 156.425 208.44 156.638 208.265 156.894L208.265 156.894L203.702 163.56Z" stroke="url(#paint12_linear)"/>
<defs>
<filter id="filter0_d" x="176" y="138" width="54" height="58" filterUnits="userSpaceOnUse" color-interpolation-filters="sRGB">
<feFlood flood-opacity="0" result="BackgroundImageFix"/>
<feColorMatrix in="SourceAlpha" type="matrix" values="0 0 0 0 0 0 0 0 0 0 0 0 0 0 0 0 0 0 127 0"/>
<feOffset dy="6"/>
<feGaussianBlur stdDeviation="2"/>
<feColorMatrix type="matrix" values="0 0 0 0 0.784253 0 0 0 0 0.885241 0 0 0 0 0.945833 0 0 0 0.35 0"/>
<feBlend mode="normal" in2="BackgroundImageFix" result="effect1_dropShadow"/>
<feBlend mode="normal" in="SourceGraphic" in2="effect1_dropShadow" result="shape"/>
</filter>
<linearGradient id="paint0_linear" x1="210.5" y1="0" x2="210.5" y2="39" gradientUnits="userSpaceOnUse">
<stop stop-color="white"/>
<stop offset="1" stop-color="white" stop-opacity="0"/>
</linearGradient>
<linearGradient id="paint1_linear" x1="210.5" y1="0" x2="210.5" y2="39" gradientUnits="userSpaceOnUse">
<stop stop-color="white"/>
<stop offset="1" stop-color="white" stop-opacity="0"/>
</linearGradient>
<linearGradient id="paint2_linear" x1="203" y1="-173" x2="203" y2="273" gradientUnits="userSpaceOnUse">
<stop stop-color="white"/>
<stop offset="1" stop-color="white" stop-opacity="0"/>
</linearGradient>
<linearGradient id="paint3_linear" x1="203" y1="-173" x2="203" y2="273" gradientUnits="userSpaceOnUse">
<stop stop-color="white"/>
<stop offset="1" stop-color="white" stop-opacity="0"/>
</linearGradient>
<linearGradient id="paint4_linear" x1="203" y1="0.000244141" x2="203" y2="250" gradientUnits="userSpaceOnUse">
<stop stop-color="white"/>
<stop offset="1" stop-color="white" stop-opacity="0"/>
</linearGradient>
<linearGradient id="paint5_linear" x1="203" y1="0.000244141" x2="203" y2="250" gradientUnits="userSpaceOnUse">
<stop stop-color="white"/>
<stop offset="1" stop-color="white" stop-opacity="0"/>
</linearGradient>
<linearGradient id="paint6_linear" x1="203" y1="138" x2="203" y2="186" gradientUnits="userSpaceOnUse">
<stop stop-color="white"/>
<stop offset="1" stop-color="white" stop-opacity="0"/>
</linearGradient>
<linearGradient id="paint7_linear" x1="203" y1="138" x2="203" y2="186" gradientUnits="userSpaceOnUse">
<stop stop-color="white"/>
<stop offset="1" stop-color="white" stop-opacity="0"/>
</linearGradient>
<linearGradient id="paint8_linear" x1="203" y1="151" x2="203" y2="182" gradientUnits="userSpaceOnUse">
<stop stop-color="white"/>
<stop offset="1" stop-color="#EFF9FF"/>
</linearGradient>
<linearGradient id="paint9_linear" x1="203" y1="134" x2="203" y2="182" gradientUnits="userSpaceOnUse">
<stop stop-color="white"/>
<stop offset="1" stop-color="white" stop-opacity="0"/>
</linearGradient>
<linearGradient id="paint10_linear" x1="203" y1="134" x2="203" y2="182" gradientUnits="userSpaceOnUse">
<stop stop-color="white"/>
<stop offset="1" stop-color="white" stop-opacity="0"/>
</linearGradient>
<linearGradient id="paint11_linear" x1="209" y1="160" x2="197" y2="160" gradientUnits="userSpaceOnUse">
<stop stop-color="white"/>
<stop offset="1" stop-color="white" stop-opacity="0"/>
</linearGradient>
<linearGradient id="paint12_linear" x1="209" y1="160" x2="197" y2="160" gradientUnits="userSpaceOnUse">
<stop stop-color="white"/>
<stop offset="1" stop-color="white" stop-opacity="0"/>
</linearGradient>
</defs>
</svg>
